# xmcd
#
# Track frame offsets:
#	150
#	18506
#	33689
#	46006
#	63823
#	86676
#	100935
#	113239
#	128341
#	144645
#	163316
#	179717
#
# Disc length: 2565 seconds
# Revision: 0
# Processed by: cddbd v1.5.2PL0 Copyright (c) Steve Scherf et al.
# Submitted via: dBpowerAMP V12.0
#
DISCID=a10a030c
DTITLE=The Spinney Brothers - Living The Dream
DYEAR=2016
DGENRE=Country
TTITLE0=Living the Dream
TTITLE1=When You and I Were Young
TTITLE2=Bitter Wind
TTITLE3=Letter to Myself
TTITLE4=Home
TTITLE5=Lonely Lonely Bed
TTITLE6=The Children Are Crying
TTITLE7=Pocket Knife
TTITLE8=Pick the Banjo
TTITLE9=Digging in the Ground
TTITLE10=Going Home to Tennessee
TTITLE11=Walk in the Sunshine
EXTD=
EXTT0=
EXTT1=
EXTT2=
EXTT3=
EXTT4=
EXTT5=
EXTT6=
EXTT7=
EXTT8=
EXTT9=
EXTT10=
EXTT11=
PLAYORDER=
